<svg width="207" height="207" viewBox="0 0 207 207" fill="none" xmlns="http://www.w3.org/2000/svg">
<circle cx="103.5" cy="103.5" r="93.5" fill="black" stroke="black" stroke-width="20"/>
<path d="M139.698 120.398C139.006 129.96 135.466 137.488 129.078 142.981C122.73 148.474 114.348 151.221 103.931 151.221C92.5379 151.221 83.5658 147.396 77.0146 139.746C70.5042 132.056 67.249 121.517 67.249 108.13V102.698C67.249 94.1528 68.7546 86.6252 71.7656 80.1147C74.7767 73.6043 79.0695 68.6198 84.644 65.1611C90.2593 61.6618 96.7697 59.9121 104.175 59.9121C114.429 59.9121 122.689 62.6587 128.956 68.1519C135.222 73.645 138.843 81.3558 139.82 91.2842H121.509C121.062 85.5469 119.454 81.3965 116.688 78.833C113.961 76.2288 109.791 74.9268 104.175 74.9268C98.0718 74.9268 93.4941 77.124 90.4424 81.5186C87.4313 85.8724 85.8851 92.6473 85.8037 101.843V108.557C85.8037 118.16 87.2482 125.179 90.1372 129.614C93.0669 134.049 97.6649 136.267 103.931 136.267C109.587 136.267 113.799 134.985 116.565 132.422C119.373 129.818 120.98 125.81 121.387 120.398H139.698Z" fill="#FFB800"/>
</svg>
