<svg width="207" height="207" viewBox="0 0 207 207" fill="none" xmlns="http://www.w3.org/2000/svg">
<circle cx="103.5" cy="103.5" r="93.5" fill="black" stroke="black" stroke-width="20"/>
<path d="M69.9346 150V61.1328H97.2783C105.091 61.1328 112.069 62.9028 118.213 66.4429C124.398 69.9422 129.22 74.9471 132.679 81.4575C136.137 87.9272 137.867 95.2922 137.867 103.552V107.642C137.867 115.902 136.158 123.246 132.74 129.675C129.362 136.104 124.581 141.089 118.396 144.629C112.212 148.169 105.233 149.959 97.4614 150H69.9346ZM88.2451 75.9644V135.291H97.0952C104.257 135.291 109.729 132.951 113.514 128.271C117.298 123.592 119.231 116.899 119.312 108.191V103.491C119.312 94.458 117.44 87.6221 113.697 82.9834C109.953 78.304 104.48 75.9644 97.2783 75.9644H88.2451Z" fill="#FFB800"/>
</svg>
