<svg width="302" height="300" viewBox="0 0 302 300" fill="none" xmlns="http://www.w3.org/2000/svg">
<path fill-rule="evenodd" clip-rule="evenodd" d="M176.712 98V126H185.712V98H206.632V126H215.632V98H236.551V126H245.551V98H267.406V150H276.406V98.6412C291.009 101.608 302 114.521 302 130V170C302 187.673 287.673 202 270 202H32C14.3269 202 0 187.673 0 170V130C0 113.664 12.2403 100.188 28.0495 98.2414L28.0495 150H37.0495V98H57.969V126H66.969V98H87.8885V126H96.8885V98H117.808V126H126.808V98H147.728V150H156.728V98H176.712Z" fill="black"/>
</svg>
