<svg width="420" height="226" viewBox="0 0 420 226" fill="none" xmlns="http://www.w3.org/2000/svg">
<path d="M259.5 113C259.5 171.582 203.494 220.5 132.5 220.5C61.5061 220.5 5.5 171.582 5.5 113C5.5 54.418 61.5061 5.5 132.5 5.5C203.494 5.5 259.5 54.418 259.5 113Z" fill="#3B46FF" stroke="black" stroke-width="11"/>
<path d="M414.5 113C414.5 171.582 358.494 220.5 287.5 220.5C216.506 220.5 160.5 171.582 160.5 113C160.5 54.418 216.506 5.5 287.5 5.5C358.494 5.5 414.5 54.418 414.5 113Z" fill="#3B46FF" stroke="black" stroke-width="11"/>
<mask id="path-3-inside-1" fill="white">
<path fill-rule="evenodd" clip-rule="evenodd" d="M210 204.329C243.318 183.805 265 150.395 265 112.665C265 74.9349 243.318 41.5239 210 21C176.682 41.5239 155 74.9349 155 112.665C155 150.395 176.682 183.805 210 204.329Z"/>
</mask>
<path fill-rule="evenodd" clip-rule="evenodd" d="M210 204.329C243.318 183.805 265 150.395 265 112.665C265 74.9349 243.318 41.5239 210 21C176.682 41.5239 155 74.9349 155 112.665C155 150.395 176.682 183.805 210 204.329Z" fill="#1921B4"/>
<path d="M210 204.329L204.231 213.695L210 217.249L215.769 213.695L210 204.329ZM210 21L215.769 11.6344L210 8.08044L204.231 11.6344L210 21ZM254 112.665C254 145.919 234.9 176.071 204.231 194.964L215.769 213.695C251.736 191.54 276 154.87 276 112.665H254ZM204.231 30.3656C234.9 49.2581 254 79.4107 254 112.665H276C276 70.4591 251.736 33.7898 215.769 11.6344L204.231 30.3656ZM166 112.665C166 79.4107 185.1 49.2581 215.769 30.3656L204.231 11.6344C168.264 33.7898 144 70.4591 144 112.665H166ZM215.769 194.964C185.1 176.071 166 145.919 166 112.665H144C144 154.87 168.264 191.54 204.231 213.695L215.769 194.964Z" fill="black" mask="url(#path-3-inside-1)"/>
</svg>
