<svg width="300" height="300" viewBox="0 0 300 300" fill="none" xmlns="http://www.w3.org/2000/svg">
<path fill-rule="evenodd" clip-rule="evenodd" d="M0 208C0 203.791 0.173392 199.622 0.513422 195.5C3.32813 161.382 17.5613 130.501 39.3827 106.688C39.5315 106.526 39.6806 106.364 39.8301 106.202C42.5101 103.303 45.3031 100.51 48.2022 97.8301C49.1014 96.9988 50.0108 96.1783 50.9302 95.369C53.1486 93.4162 55.4251 91.5279 57.7568 89.7071C80.1205 72.2434 107.564 60.9831 137.5 58.5134C141.622 58.1734 145.791 58 150 58C154.209 58 158.378 58.1734 162.5 58.5134C192.795 61.0127 220.537 72.5147 243.045 90.3379L266.064 67.3196L280.913 82.1688L258.577 104.505C281.55 128.599 296.585 160.329 299.487 195.5C299.827 199.622 300 203.791 300 208C300 210.103 299.957 212.197 299.871 214.279H235.814V195.5H274.383C271.576 167.232 259.352 141.734 240.893 122.189L186.403 176.678C190.311 183.18 192.558 190.793 192.558 198.93C192.558 222.82 173.192 242.186 149.302 242.186C125.413 242.186 106.046 222.82 106.046 198.93C106.046 175.041 125.413 155.674 149.302 155.674C157.44 155.674 165.053 157.922 171.554 161.829L225.224 108.159C207.421 94.7246 185.91 85.9415 162.5 83.6172V115.209H137.5V83.6159C114.438 85.9013 93.2425 94.4459 75.5945 107.545L97.4435 129.394L79.7658 147.071L57.0801 124.386C39.7344 143.644 28.3145 168.282 25.6161 195.5H62.7907V214.279H0.129042C0.0432948 212.197 0 210.103 0 208ZM149.302 222.186C162.146 222.186 172.558 211.774 172.558 198.93C172.558 186.086 162.146 175.674 149.302 175.674C136.458 175.674 126.046 186.086 126.046 198.93C126.046 211.774 136.458 222.186 149.302 222.186Z" fill="black"/>
</svg>
